C:\GBW_MyPrograms\KinderuniversiteitApp\Resultaten\smurf_test_midnight\Jullie_lengte\Jullie_lengte_v1.mot
version=1
nRows=18
nColumns=29
inDegrees=yes
endheader
                time	         pelvis_tilt	           pelvis_tx	           pelvis_ty	       hip_flexion_l	       hip_flexion_r	        knee_angle_l	        knee_angle_r	       ankle_angle_l	       ankle_angle_r	    lumbar_extension	hamstrings_r/activation	bifemsh_r/activation	glut_max_r/activation	iliopsoas_r/activation	rect_fem_r/activation	  vasti_r/activation	gastroc_r/activation	 soleus_r/activation	tib_ant_r/activation	hamstrings_l/activation	bifemsh_l/activation	glut_max_l/activation	iliopsoas_l/activation	rect_fem_l/activation	  vasti_l/activation	gastroc_l/activation	 soleus_l/activation	tib_ant_l/activation	
          0.49441845	         -6.18445297	          0.42025568	          0.68052469	         28.60883503	        -12.36177402	        -18.31408322	         -8.11292535	          7.70158539	         -2.08334586	         -1.39170065	          0.05807800	          0.13226529	          0.07645362	          0.40724419	          0.06436929	          0.05380026	          0.20635848	          0.23682623	          0.05218897	          0.12049150	          0.06663858	          0.09218458	          0.07143302	          0.08786783	          0.06756773	          0.05723174	          0.05723121	          0.23375796	
          0.50430682	         -6.17079682	          0.43089384	          0.67937319	         27.92327892	        -12.24076407	        -17.91660052	         -9.97821403	          7.62841043	         -2.58721742	         -1.10796457	          0.05868807	          0.11717150	          0.06801888	          0.37930896	          0.06084056	          0.05362820	          0.17749261	          0.22799342	          0.05141089	          0.11897550	          0.06761107	          0.08799730	          0.06320497	          0.07781007	          0.10315470	          0.05228681	          0.05128654	          0.24348417	
          0.51419519	         -6.15117263	          0.44186461	          0.67818203	         27.09148769	        -11.99616580	        -17.97059424	        -12.10569297	          7.53976089	         -3.21763621	         -0.77707152	          0.06372868	          0.10416311	          0.10917703	          0.33941046	          0.05736772	          0.05267796	          0.15258330	          0.19817501	          0.05124911	          0.11167567	          0.13350057	          0.08017564	          0.05840530	          0.06812286	          0.09955065	          0.06522278	          0.06272779	          0.23688900	
          0.52408356	         -6.12680473	          0.45303370	          0.67701684	         26.20111592	        -11.63651366	        -18.19433836	        -14.44360820	          7.43419001	         -4.02434509	         -0.41889267	          0.05992132	          0.09278892	          0.12414900	          0.32699876	          0.05848872	          0.05366611	          0.13115717	          0.17051651	          0.05120056	          0.09702421	          0.12552825	          0.10929359	          0.05408309	          0.06115197	          0.16029144	          0.05801208	          0.05617631	          0.27619409	
          0.53397192	         -6.10013061	          0.46421542	          0.67602855	         25.36321965	        -11.15141426	        -18.53317429	        -16.96340427	          7.52204327	         -5.00462254	         -0.06009700	          0.05749772	          0.08352729	          0.11029915	          0.29908341	          0.06370787	          0.06540132	          0.11276959	          0.14659827	          0.13484826	          0.08506118	          0.11227853	          0.15231838	          0.05245372	          0.05787165	          0.20824977	          0.05443931	          0.05209709	          0.26731195	
          0.54386029	         -6.07555418	          0.47523036	          0.67529132	         24.62285804	        -10.54303324	        -19.02000340	        -19.64933149	          7.66790505	         -5.92609282	          0.27499407	          0.05960792	          0.07823438	          0.09608722	          0.27277148	          0.06037112	          0.05776101	          0.09705954	          0.12605624	          0.21267688	          0.07876132	          0.10236973	          0.18109400	          0.05218049	          0.05492701	          0.26719717	          0.05000008	          0.05549397	          0.23135566	
          0.55374866	         -6.05571896	          0.48594092	          0.67483068	         23.94281747	         -9.82772767	        -19.58792566	        -22.38499552	          8.13576980	         -6.43180412	          0.56785780	          0.07136513	          0.09071896	          0.08384391	          0.25970123	          0.05552516	          0.05130089	          0.08503514	          0.10912111	          0.21528362	          0.07159305	          0.09470427	          0.19147783	          0.05185959	          0.05489390	          0.28969587	          0.05703988	          0.08016749	          0.20116187	
          0.56363703	         -6.04270135	          0.49627501	          0.67475125	         23.27527607	         -9.02556208	        -20.11228401	        -24.92089490	          8.68238141	         -6.35296547	          0.81065377	          0.08996430	          0.11632918	          0.07309764	          0.23513027	          0.05352577	          0.05070404	          0.07955135	          0.09436053	          0.24106324	          0.07065624	          0.09450880	          0.17951664	          0.05217422	          0.05452132	          0.28873796	          0.06343901	          0.09627113	          0.17953262	
          0.57352540	         -6.03580587	          0.50623824	          0.67511000	         22.59134795	         -8.12394918	        -20.52717152	        -27.25988783	          9.16461008	         -5.97942300	          1.00541435	          0.10453895	          0.13340440	          0.06423174	          0.21418978	          0.05392130	          0.05077828	          0.07703628	          0.08161876	          0.23272565	          0.07055882	          0.09609845	          0.15953394	          0.05255073	          0.05481423	          0.27698446	          0.07733119	          0.10753815	          0.16293641	
          0.58341377	         -6.03335499	          0.51587090	          0.67585674	         21.87151962	         -7.12792596	        -20.79835060	        -29.42947290	          9.51072317	         -5.48062579	          1.15823510	          0.11503967	          0.14797078	          0.05739741	          0.19648779	          0.05489175	          0.05080557	          0.07597507	          0.07068006	          0.22376804	          0.07009972	          0.09397148	          0.14148560	          0.05287261	          0.05550797	          0.25996282	          0.08711920	          0.12092184	          0.15040052	
          0.59330214	         -6.03405358	          0.52521854	          0.67689858	         21.10416927	         -6.04984964	        -20.91365567	        -31.44881672	          9.71835070	         -4.88791853	          1.27582353	          0.12146538	          0.16422305	          0.05357230	          0.18151307	          0.05712299	          0.05083370	          0.07505906	          0.06153223	          0.21385425	          0.06974516	          0.08915151	          0.12587259	          0.05311293	          0.05693239	          0.24045816	          0.09523444	          0.13404084	          0.14108904	
          0.60319051	         -6.03665907	          0.53431987	          0.67814140	         20.28674915	         -4.90245870	        -20.87784104	        -33.32850996	          9.79886917	         -4.25510607	          1.36337711	          0.12763988	          0.18669483	          0.05239360	          0.16908626	          0.06467386	          0.05083622	          0.07409980	          0.05456195	          0.20359062	          0.06928235	          0.08335616	          0.11353563	          0.05313050	          0.05898425	          0.22198894	          0.10797072	          0.14475862	          0.13075093	
          0.61307888	         -6.04017648	          0.54320307	          0.67950541	         19.42290965	         -3.69621651	        -20.70354898	        -35.07263169	          9.75571372	         -3.62389187	          1.42437850	          0.13422529	          0.21360344	          0.05189177	          0.15759900	          0.07836173	          0.05080760	          0.07077092	          0.05185998	          0.19888205	          0.06990333	          0.07764655	          0.10343209	          0.05321087	          0.06161659	          0.20477829	          0.12094792	          0.15569940	          0.11668245	
          0.62296725	         -6.04400739	          0.55188669	          0.68092898	         18.51910350	         -2.43814880	        -20.40662634	        -36.68686840	          9.59709593	         -3.00966457	          1.46105464	          0.13687801	          0.24265761	          0.05182818	          0.14803772	          0.09689606	          0.05079290	          0.06691330	          0.05145926	          0.19689855	          0.07000244	          0.07262636	          0.09924175	          0.05304633	          0.06484923	          0.18751563	          0.13531575	          0.16410535	          0.10236597	
          0.63285561	         -6.04759186	          0.56038555	          0.68236577	         17.58063951	         -1.13421519	        -20.00257174	        -38.17595089	          9.34803649	         -2.41040161	          1.47522167	          0.13190530	          0.27061888	          0.05163432	          0.13935998	          0.11483533	          0.05080728	          0.06385841	          0.05147574	          0.19649517	          0.07104002	          0.06878228	          0.09694879	          0.05294923	          0.06884271	          0.17129422	          0.15081996	          0.16981561	          0.08942283	
          0.64274398	         -6.05073835	          0.56871020	          0.68377895	         16.61363329	          0.21143430	        -19.50770631	        -39.54407208	          9.03546769	         -1.81848920	          1.46823784	          0.12215500	          0.29777623	          0.05162655	          0.13090838	          0.12935713	          0.05083414	          0.06183431	          0.05144200	          0.19698384	          0.07268535	          0.06625243	          0.09587784	          0.05287321	          0.07357373	          0.15450002	          0.16719899	          0.17428391	          0.07816342	
          0.65263235	         -6.05324913	          0.57686733	          0.68513815	         15.62691008	          1.59632111	        -18.94231485	        -40.79722928	          8.67998141	         -1.23377722	          1.44075914	          0.11073299	          0.32331138	          0.05163135	          0.12318422	          0.14142776	          0.05088651	          0.05994078	          0.05141249	          0.19713718	          0.07438329	          0.06504529	          0.09470823	          0.05286295	          0.07928480	          0.13873858	          0.18321474	          0.17868022	          0.06859530	
          0.66252072	         -6.05484487	          0.58486149	          0.68641857	         14.62950541	          3.01894299	        -18.32601926	        -41.94369837	          8.29684407	         -0.65830001	          1.39294039	          0.09930064	          0.34644131	          0.05160253	          0.11621509	          0.15132289	          0.05096313	          0.05842184	          0.05141217	          0.19799849	          0.07545904	          0.06487775	          0.09390931	          0.05287529	          0.08667225	          0.12449556	          0.19844943	          0.18212750	          0.06070257	
